<?xml version="1.0" encoding="UTF-8"?>
<!DOCTYPE svg PUBLIC "-//W3C//DTD SVG 1.1//EN" "http://www.w3.org/Graphics/SVG/1.1/DTD/svg11.dtd">
<svg xmlns="http://www.w3.org/2000/svg" version="1.1" width="294px" height="296px" style="shape-rendering:geometricPrecision; text-rendering:geometricPrecision; image-rendering:optimizeQuality; fill-rule:evenodd; clip-rule:evenodd" xmlns:xlink="http://www.w3.org/1999/xlink">
<g><path style="opacity:0.759" fill="#a742c9" d="M 264.5,-0.5 C 265.167,-0.5 265.833,-0.5 266.5,-0.5C 265.102,7.76019 263.102,15.7602 260.5,23.5C 260.5,16.8333 260.5,10.1667 260.5,3.5C 261.833,2.16667 263.167,0.833333 264.5,-0.5 Z"/></g>
<g><path style="opacity:0.922" fill="#ab40c4" d="M 260.5,3.5 C 260.5,10.1667 260.5,16.8333 260.5,23.5C 258.768,33.0935 256.435,42.4268 253.5,51.5C 253.548,36.8253 253.881,22.1586 254.5,7.5C 256.147,5.6736 258.147,4.34026 260.5,3.5 Z"/></g>
<g><path style="opacity:0.945" fill="#ad3ec0" d="M 254.5,7.5 C 253.881,22.1586 253.548,36.8253 253.5,51.5C 253.102,55.7607 252.102,59.7607 250.5,63.5C 251.455,45.1837 252.122,26.8504 252.5,8.5C 252.842,7.66175 253.508,7.32842 254.5,7.5 Z"/></g>
<g><path style="opacity:0.944" fill="#b03dbd" d="M 252.5,8.5 C 252.122,26.8504 251.455,45.1837 250.5,63.5C 249.592,70.793 247.926,77.793 245.5,84.5C 246.522,60.1718 247.522,35.8385 248.5,11.5C 249.436,10.0256 250.77,9.02561 252.5,8.5 Z"/></g>
<g><path style="opacity:0.954" fill="#b33bb8" d="M 248.5,11.5 C 247.522,35.8385 246.522,60.1718 245.5,84.5C 243.768,94.0935 241.435,103.427 238.5,112.5C 239.922,80.1839 240.922,47.8506 241.5,15.5C 243.698,13.9019 246.031,12.5686 248.5,11.5 Z"/></g>
<g><path style="opacity:0.97" fill="#b839b1" d="M 241.5,15.5 C 240.922,47.8506 239.922,80.1839 238.5,112.5C 234.435,131.427 229.768,150.093 224.5,168.5C 226.027,120.505 227.36,72.5053 228.5,24.5C 232.622,21.266 236.955,18.266 241.5,15.5 Z"/></g>
<g><path style="opacity:0.973" fill="#b938af" d="M 228.5,24.5 C 227.36,72.5053 226.027,120.505 224.5,168.5C 224.102,172.761 223.102,176.761 221.5,180.5C 223.544,128.85 225.211,77.1829 226.5,25.5C 227.167,25.1667 227.833,24.8333 228.5,24.5 Z"/></g>
<g><path style="opacity:0.979" fill="#ba37ad" d="M 226.5,25.5 C 225.211,77.1829 223.544,128.85 221.5,180.5C 220.102,188.76 218.102,196.76 215.5,204.5C 217.212,146.147 219.212,87.8141 221.5,29.5C 222.945,27.9373 224.611,26.604 226.5,25.5 Z"/></g>
<g><path style="opacity:0.982" fill="#bc36aa" d="M 221.5,29.5 C 219.212,87.8141 217.212,146.147 215.5,204.5C 211.768,222.093 207.435,239.427 202.5,256.5C 204.634,183.493 206.967,110.493 209.5,37.5C 213.148,34.3401 217.148,31.6735 221.5,29.5 Z"/></g>
<g><path style="opacity:0.989" fill="#bf35a5" d="M 209.5,37.5 C 206.967,110.493 204.634,183.493 202.5,256.5C 199.658,269.534 196.658,282.534 193.5,295.5C 192.833,295.5 192.167,295.5 191.5,295.5C 190.439,292.378 189.105,289.378 187.5,286.5C 189.716,206.465 192.383,126.465 195.5,46.5C 199.819,43.0043 204.485,40.0043 209.5,37.5 Z"/></g>
<g><path style="opacity:0.988" fill="#c234a3" d="M 195.5,46.5 C 192.383,126.465 189.716,206.465 187.5,286.5C 185.992,284.819 184.992,282.819 184.5,280.5C 187.07,203.507 189.403,126.507 191.5,49.5C 192.436,48.0256 193.77,47.0256 195.5,46.5 Z"/></g>
<g><path style="opacity:0.99" fill="#c4339f" d="M 191.5,49.5 C 189.403,126.507 187.07,203.507 184.5,280.5C 178.915,270.331 173.582,259.998 168.5,249.5C 170.389,186.496 172.389,123.496 174.5,60.5C 179.892,56.447 185.559,52.7803 191.5,49.5 Z"/></g>
<g><path style="opacity:0.989" fill="#c6319b" d="M 174.5,60.5 C 172.389,123.496 170.389,186.496 168.5,249.5C 166.515,246.202 164.515,242.869 162.5,239.5C 165.005,181.343 167.005,123.009 168.5,64.5C 170.205,62.8079 172.205,61.4746 174.5,60.5 Z"/></g>
<g><path style="opacity:0.986" fill="#c93098" d="M 168.5,64.5 C 167.005,123.009 165.005,181.343 162.5,239.5C 158.153,230.807 153.82,222.14 149.5,213.5C 150.919,167.169 152.253,120.836 153.5,74.5C 158.291,70.9317 163.291,67.5984 168.5,64.5 Z"/></g>
<g><path style="opacity:0.983" fill="#cc2f92" d="M 153.5,74.5 C 152.253,120.836 150.919,167.169 149.5,213.5C 144.862,204.895 140.195,196.228 135.5,187.5C 135.043,186.702 134.376,186.369 133.5,186.5C 134.865,152.846 135.865,119.179 136.5,85.5C 141.996,81.5842 147.663,77.9175 153.5,74.5 Z"/></g>
<g><path style="opacity:0.984" fill="#ce2e8f" d="M 136.5,85.5 C 135.865,119.179 134.865,152.846 133.5,186.5C 133.167,186.5 132.833,186.5 132.5,186.5C 133.758,153.175 134.758,119.842 135.5,86.5C 135.5,85.8333 135.833,85.5 136.5,85.5 Z"/></g>
<g><path style="opacity:0.984" fill="#d02d8c" d="M 135.5,86.5 C 134.758,119.842 133.758,153.175 132.5,186.5C 126.5,185.5 120.5,184.5 114.5,183.5C 115.693,155.177 116.693,126.844 117.5,98.5C 123.205,94.141 129.205,90.141 135.5,86.5 Z"/></g>
<g><path style="opacity:0.98" fill="#d32b88" d="M 117.5,98.5 C 116.693,126.844 115.693,155.177 114.5,183.5C 111.311,183.142 108.311,182.475 105.5,181.5C 106.787,155.905 107.787,130.238 108.5,104.5C 111.291,102.265 114.291,100.265 117.5,98.5 Z"/></g>
<g><path style="opacity:0.99" fill="#d52b86" d="M 108.5,104.5 C 107.787,130.238 106.787,155.905 105.5,181.5C 105.167,181.5 104.833,181.5 104.5,181.5C 105.323,156.142 106.323,130.808 107.5,105.5C 107.5,104.833 107.833,104.5 108.5,104.5 Z"/></g>
<g><path style="opacity:0.983" fill="#d52a84" d="M 107.5,105.5 C 106.323,130.808 105.323,156.142 104.5,181.5C 101.794,181.425 99.1272,181.092 96.5,180.5C 97.3664,157.507 98.0331,134.507 98.5,111.5C 101.291,109.265 104.291,107.265 107.5,105.5 Z"/></g>
<g><path style="opacity:0.98" fill="#d82a80" d="M 98.5,111.5 C 98.0331,134.507 97.3664,157.507 96.5,180.5C 89.8691,179.284 83.2024,178.284 76.5,177.5C 76.8663,159.809 77.533,142.143 78.5,124.5C 85.1667,120.167 91.8333,115.833 98.5,111.5 Z"/></g>
<g><path style="opacity:0.973" fill="#da297c" d="M 78.5,124.5 C 77.533,142.143 76.8663,159.809 76.5,177.5C 75.8333,177.167 75.1667,176.833 74.5,176.5C 74.8879,159.804 75.5546,143.137 76.5,126.5C 76.8333,125.5 77.5,124.833 78.5,124.5 Z"/></g>
<g><path style="opacity:0.97" fill="#dc2879" d="M 76.5,126.5 C 75.5546,143.137 74.8879,159.804 74.5,176.5C 67.7976,175.716 61.1309,174.716 54.5,173.5C 55.3509,162.523 55.6843,151.523 55.5,140.5C 61.9756,135.092 68.9756,130.425 76.5,126.5 Z"/></g>
<g><path style="opacity:0.956" fill="#df2774" d="M 55.5,140.5 C 55.6843,151.523 55.3509,162.523 54.5,173.5C 50.8068,172.94 47.1402,172.273 43.5,171.5C 44.4368,163.555 44.7701,155.555 44.5,147.5C 47.894,144.779 51.5606,142.446 55.5,140.5 Z"/></g>
<g><path style="opacity:0.938" fill="#e12672" d="M 44.5,147.5 C 44.7701,155.555 44.4368,163.555 43.5,171.5C 40.5176,171.037 37.5176,170.704 34.5,170.5C 34.5,165.167 34.5,159.833 34.5,154.5C 37.4459,151.687 40.7792,149.354 44.5,147.5 Z"/></g>
<g><path style="opacity:0.852" fill="#e3266e" d="M 34.5,154.5 C 34.5,159.833 34.5,165.167 34.5,170.5C 28.4832,169.384 22.4832,168.051 16.5,166.5C 22.1763,161.997 28.1763,157.997 34.5,154.5 Z"/></g>
</svg>
